<?xml version="1.0" standalone="no"?>
<!DOCTYPE svg PUBLIC "-//W3C//DTD SVG 20010904//EN"
 "http://www.w3.org/TR/2001/REC-SVG-20010904/DTD/svg10.dtd">
<svg version="1.0" xmlns="http://www.w3.org/2000/svg"
 width="100.000000pt" height="80.000000pt" viewBox="0 0 1081.000000 788.000000"
 preserveAspectRatio="xMidYMid meet">

<g transform="translate(0.000000,788.000000) scale(0.100000,-0.100000)"
fill="#000000" stroke="none">
<path d="M3609 7278 c14 -16 34 -27 45 -27 20 1 20 1 1 6 -11 3 -31 15 -45 26
l-25 22 24 -27z"/>
<path d="M2174 7035 c-164 -185 -249 -349 -301 -577 -11 -49 -17 -131 -19
-246 -2 -96 -7 -179 -13 -185 -5 -7 -7 -50 -4 -100 l6 -88 38 58 c22 32 43 58
49 57 5 -1 15 -2 20 -2 6 -1 -14 -35 -44 -74 -69 -94 -80 -116 -77 -156 1 -22
-2 -31 -9 -27 -8 5 -9 -5 -5 -32 4 -23 3 -33 -3 -25 -6 9 -14 -5 -25 -46 -25
-91 -110 -249 -181 -339 -59 -75 -212 -211 -223 -199 -3 2 0 44 6 93 5 48 13
127 17 175 l6 87 -33 -9 c-19 -6 -35 -10 -36 -10 -2 0 -3 -12 -3 -27 0 -15
-12 -94 -27 -175 -24 -136 -28 -148 -48 -148 -42 0 -212 114 -326 218 -39 35
-59 47 -72 43 -15 -6 -3 -22 70 -91 48 -47 113 -102 145 -124 l56 -38 -24 -70
c-15 -44 -20 -76 -15 -85 10 -19 13 -14 40 69 l22 67 52 -27 c29 -15 53 -27
54 -28 2 0 -13 -56 -32 -125 -32 -115 -40 -180 -27 -204 16 -26 -16 -202 -46
-262 -18 -34 -21 -36 -28 -18 -32 88 -55 128 -66 117 -9 -9 -6 -30 12 -87 13
-41 21 -78 18 -81 -13 -13 -127 -16 -197 -5 -94 15 -183 44 -246 82 -46 27
-48 27 -20 4 83 -71 247 -119 390 -113 l87 3 -7 -70 c-35 -358 -17 -751 51
-1085 23 -112 68 -288 77 -296 2 -2 8 52 15 119 11 111 10 132 -8 232 -82 447
-73 926 25 1371 41 184 71 277 100 304 14 13 25 21 25 18 0 -4 -15 -60 -34
-125 -39 -135 -79 -329 -101 -488 -31 -221 -29 -798 3 -886 5 -12 14 26 25 99
10 64 33 196 52 292 18 96 38 238 45 315 19 231 55 426 122 657 l30 107 42
-28 c98 -68 240 -128 376 -161 88 -20 320 -29 320 -12 0 5 -43 9 -96 10 -207
4 -450 92 -629 229 -27 21 -51 46 -53 56 -2 12 28 37 105 88 59 39 110 75 111
80 2 5 1 16 -2 25 -4 12 -22 6 -93 -30 -49 -25 -103 -55 -120 -67 -50 -32 -40
-11 29 61 113 120 213 279 248 398 7 23 17 42 22 42 5 0 6 10 3 23 -4 15 -3
18 3 9 17 -24 85 22 127 86 92 139 168 233 184 227 44 -18 213 -56 313 -71
149 -22 423 -15 548 14 87 21 176 48 244 77 60 25 31 39 -35 17 -165 -57 -231
-66 -479 -67 -263 0 -327 9 -530 71 -104 32 -200 76 -200 91 0 6 154 197 225
280 l35 41 -17 36 -17 37 -64 -63 c-35 -35 -99 -102 -142 -150 -56 -61 -80
-82 -84 -71 -12 30 -5 264 9 344 41 221 143 429 287 585 22 24 38 44 35 44 -3
0 -31 -29 -63 -65z m-764 -2050 c-7 -8 -17 -15 -23 -15 -5 0 -2 9 8 20 21 23
35 19 15 -5z"/>
<path d="M1375 6510 c43 -48 104 -63 141 -35 18 14 16 15 -21 9 -32 -4 -51 0
-90 21 -46 25 -49 25 -30 5z"/>
<path d="M3190 6355 c0 -9 13 -30 29 -46 24 -24 37 -29 73 -28 l43 1 -42 10
c-28 6 -52 20 -72 44 -21 23 -31 29 -31 19z"/>
<path d="M2514 6239 c17 -90 111 -149 236 -149 49 0 52 1 35 14 -11 7 -40 16
-65 20 -62 9 -118 43 -158 96 -44 58 -57 63 -48 19z"/>
<path d="M1594 6216 c11 -9 27 -16 35 -15 14 0 14 1 1 6 -8 3 -24 10 -35 15
-20 9 -20 9 -1 -6z"/>
<path d="M950 5331 c0 -13 82 -51 109 -51 30 0 83 28 76 40 -4 7 -13 6 -25 0
-27 -15 -91 -12 -124 5 -33 18 -36 18 -36 6z"/>
<path d="M2009 4812 c18 -33 101 -78 101 -54 0 5 -14 12 -30 16 -17 3 -42 18
-57 33 -22 23 -24 24 -14 5z"/>
<path d="M5763 4465 c-35 -6 -65 -13 -67 -16 -3 -3 128 -1361 133 -1386 1 -2
14 -3 30 -3 19 0 30 6 33 18 69 259 223 801 226 797 3 -3 55 -186 116 -408
l111 -402 33 -3 c25 -3 32 0 32 15 0 10 29 321 66 691 36 370 64 676 61 679
-3 3 -33 11 -66 18 l-61 12 -4 -31 c-3 -17 -17 -227 -31 -466 -14 -239 -29
-456 -33 -482 -7 -44 -13 -26 -106 313 -124 448 -116 442 -193 164 -118 -430
-147 -529 -150 -515 -1 8 -16 236 -33 505 -17 270 -31 495 -33 501 -1 7 -21 7
-64 -1z"/>
<path d="M881 4453 c-19 -8 -43 -12 -53 -10 -10 3 -16 1 -12 -4 9 -16 61 -10
85 11 28 23 25 23 -20 3z"/>
<path d="M2030 4390 l0 -60 55 0 55 0 0 -560 0 -560 -55 0 -55 0 0 -66 0 -66
258 4 c211 4 265 8 302 22 132 50 201 150 220 320 21 183 -33 320 -157 392
l-41 25 49 46 c69 65 93 130 86 243 -5 108 -37 181 -107 243 -77 70 -114 77
-381 77 l-229 0 0 -60z m465 -80 c37 -14 72 -46 91 -83 24 -45 29 -145 11
-208 -28 -96 -86 -129 -227 -129 l-90 0 0 221 0 222 93 -6 c50 -3 106 -11 122
-17z m58 -569 c87 -42 121 -122 115 -270 -5 -124 -36 -197 -102 -236 -39 -23
-53 -25 -164 -25 l-122 0 0 281 0 282 113 -5 c91 -3 122 -8 160 -27z"/>
<path d="M3546 4400 c-15 -22 -40 -52 -56 -67 -17 -14 -30 -30 -30 -35 0 -5
-18 -25 -39 -45 -22 -19 -42 -45 -45 -57 -3 -12 -17 -28 -31 -34 -16 -7 -23
-17 -19 -27 6 -16 22 -6 97 60 15 14 33 25 40 25 7 0 28 20 47 45 19 24 40 44
46 45 6 0 24 17 41 38 33 41 31 62 -6 82 -16 8 -23 3 -45 -30z"/>
<path d="M4610 4157 c-134 -38 -225 -151 -266 -332 -26 -114 -24 -331 4 -437
39 -146 112 -247 210 -290 64 -29 181 -35 255 -14 113 33 204 150 244 311 24
102 24 355 -1 450 -37 142 -113 246 -213 292 -64 29 -169 38 -233 20z m180
-137 c79 -40 125 -138 143 -304 13 -121 -1 -274 -34 -360 -48 -129 -142 -185
-255 -151 -80 24 -129 92 -160 222 -12 52 -15 104 -12 223 5 168 21 235 74
311 51 74 162 101 244 59z"/>
<path d="M7256 3629 c-92 -286 -166 -522 -164 -524 6 -5 113 -40 122 -40 6 0
33 70 60 155 l51 155 189 0 189 0 48 -153 c26 -85 49 -156 52 -158 7 -8 127
40 127 50 0 10 -36 125 -241 759 l-90 277 -88 0 -87 0 -168 -521z m333 115
c39 -127 71 -234 71 -238 0 -3 -68 -6 -151 -6 -128 0 -150 2 -146 15 4 8 36
112 73 232 66 216 73 237 79 231 2 -2 35 -107 74 -234z"/>
<path d="M8600 3615 l0 -535 65 0 65 0 0 230 0 230 103 0 102 0 129 -230 c71
-126 133 -234 136 -240 6 -9 80 26 119 57 2 2 -53 97 -122 212 -70 115 -127
213 -127 219 0 5 11 13 24 16 40 10 123 93 153 154 24 49 28 68 27 142 0 75
-4 92 -30 139 -19 37 -44 64 -74 83 -80 51 -123 58 -357 58 l-213 0 0 -535z
m458 392 c98 -53 106 -198 17 -284 -53 -51 -111 -65 -246 -61 l-94 3 -3 183
-2 184 147 -4 c118 -3 155 -7 181 -21z"/>
<path d="M10010 3615 l0 -535 330 0 330 0 0 65 0 65 -265 0 -265 0 2 188 3
187 218 3 217 2 0 60 0 60 -220 0 -221 0 3 158 3 157 263 3 262 2 0 60 0 60
-330 0 -330 0 0 -535z"/>
<path d="M3455 3920 c-3 -6 -16 -8 -28 -5 -22 6 -22 4 -24 -127 -1 -129 -12
-270 -32 -411 -10 -76 -6 -173 11 -230 16 -52 50 -78 91 -70 46 9 110 38 126
57 7 9 19 16 25 16 17 0 129 97 140 120 5 11 15 20 22 20 7 0 16 9 19 20 3 11
11 20 16 20 15 0 10 30 -6 37 -14 5 -30 -5 -68 -45 -6 -7 -20 -21 -29 -31 -10
-9 -61 -41 -114 -70 -119 -65 -152 -67 -172 -6 -8 25 -11 63 -8 100 11 131 24
231 33 260 6 17 8 35 6 42 -2 6 3 25 12 42 12 24 13 35 4 49 -9 14 -8 36 4 95
12 60 13 81 4 101 -13 28 -22 32 -32 16z"/>
<path d="M5509 2346 c-121 -82 -60 -266 87 -266 l49 0 119 -215 c111 -202 117
-217 104 -238 -28 -42 -30 -76 -8 -122 l21 -43 -108 -202 -109 -202 -42 -2
c-78 -4 -131 -86 -102 -157 19 -45 56 -69 107 -69 38 0 50 5 79 34 39 39 45
83 18 139 l-17 35 110 203 c93 174 112 204 130 201 35 -5 89 24 109 57 l18 31
237 0 236 0 11 -24 c16 -35 58 -60 105 -61 l40 -1 98 -188 97 -189 -19 -31
c-64 -104 52 -221 157 -157 17 10 36 33 44 50 l12 31 258 0 258 0 12 -30 c16
-39 70 -72 112 -68 32 3 35 0 129 -142 l96 -145 -24 -44 c-29 -55 -29 -95 0
-146 28 -50 95 -81 151 -71 47 9 101 57 116 102 34 101 -60 206 -168 190 l-37
-5 -93 143 -93 144 15 31 c21 40 20 79 -3 117 l-19 32 115 176 115 176 52 -6
c73 -9 126 19 156 81 71 147 -120 285 -232 168 -51 -53 -61 -115 -29 -174 l19
-36 -120 -182 c-114 -170 -123 -181 -152 -181 -38 0 -92 -32 -101 -59 -6 -21
-12 -21 -275 -21 -263 0 -269 0 -275 21 -9 28 -63 59 -102 59 -31 0 -34 4
-132 192 -91 176 -98 194 -85 212 19 27 18 90 -2 127 l-15 31 119 215 119 215
66 1 c55 2 70 6 92 27 105 98 47 260 -94 260 -114 0 -182 -123 -123 -223 l21
-36 -122 -220 c-121 -218 -122 -221 -155 -221 -46 0 -88 -24 -104 -60 l-13
-30 -235 0 -235 0 -12 28 c-16 35 -61 62 -105 62 -33 0 -34 2 -150 214 -65
118 -118 216 -118 219 0 4 11 23 25 43 88 130 -75 289 -206 200z"/>
</g>
</svg>
